<?xml version="1.0" encoding="UTF-8" standalone="no"?>
<!DOCTYPE svg PUBLIC "-//W3C//DTD SVG 1.1//EN" "http://www.w3.org/Graphics/SVG/1.1/DTD/svg11.dtd">
<svg width="100%" height="100%" viewBox="0 0 1024 1024" version="1.1" xmlns="http://www.w3.org/2000/svg" xmlns:xlink="http://www.w3.org/1999/xlink" xml:space="preserve" xmlns:serif="http://www.serif.com/" style="fill-rule:evenodd;clip-rule:evenodd;stroke-linejoin:round;stroke-miterlimit:2;">
    <g transform="matrix(0.9999,0,0,1.00407,0.000985802,-0.0283447)">
        <circle cx="513.39" cy="510.509" r="503.549" style="fill:rgb(24,117,209);"/>
    </g>
    <g id="phone-solid-2.svg" transform="matrix(1.19023,0,0,1.19023,504.327,504.453)">
        <g transform="matrix(1,0,0,1,-256,-256)">
            <clipPath id="_clip1">
                <rect x="0" y="0" width="512" height="512"/>
            </clipPath>
            <g clip-path="url(#_clip1)">
                <path d="M164.9,24.6C157.2,6 136.9,-3.9 117.5,1.4L29.5,25.4C12.1,30.2 0,46 0,64C0,311.4 200.6,512 448,512C466,512 481.8,499.9 486.6,482.5L510.6,394.5C515.9,375.1 506,354.8 487.4,347.1L391.4,307.1C375.1,300.3 356.2,305 345.1,318.7L304.7,368C234.3,334.7 177.3,277.7 144,207.3L193.3,167C207,155.8 211.7,137 204.9,120.7L164.9,24.7L164.9,24.6Z" style="fill:white;fill-rule:nonzero;"/>
            </g>
        </g>
    </g>
</svg>
