<svg width="273" height="273" viewBox="0 0 273 273" fill="none" xmlns="http://www.w3.org/2000/svg">
<mask id="mask0" mask-type="alpha" maskUnits="userSpaceOnUse" x="0" y="0" width="273" height="273">
<circle cx="136.5" cy="136.5" r="136.5" fill="url(#paint0_linear)"/>
</mask>
<g mask="url(#mask0)">
<path fill-rule="evenodd" clip-rule="evenodd" d="M235.222 230.767C258.626 206.263 273 173.06 273 136.5C273 61.1131 211.887 0 136.5 0C61.1131 0 0 61.1131 0 136.5C0 173.196 14.4802 206.509 38.0384 231.039C27.6269 245.602 27 255.317 27 257.052C27 260.793 29.6765 263.466 33.4236 263.466C37.1708 264 40.3826 260.793 40.3826 257.586C40.3826 257.586 40.789 251.094 48.0757 240.491C71.8957 260.765 102.769 273 136.5 273C170.394 273 201.403 260.646 225.27 240.196C232.554 250.736 233.092 257.318 233.092 257.586C233.092 261.328 236.304 264 239.515 264C243.263 264 245.939 260.793 245.939 257.586C246.231 255.543 245.885 245.53 235.222 230.767ZM235.222 230.767C226.36 218.498 210.372 202.948 181.703 185.967C180.632 185.433 173.138 178.485 173.138 162.985C173.138 162.451 173.138 161.916 172.603 161.382C181.167 151.227 184.914 139.468 186.52 134.124C190.449 118.435 189.873 94.2016 189.751 89.0631C189.74 88.5999 189.732 88.2918 189.732 88.1592C189.197 82.8145 188.126 77.4698 187.056 72.6596C202.58 44.3326 187.591 25.0917 187.056 24.5572C185.45 22.4193 181.703 21.3504 179.026 22.4194C179.026 22.4194 165.644 27.7641 134.596 27.7641H126.566C111.578 27.7641 94.9835 28.833 85.3481 43.7982C76.2479 57.6944 81.0656 81.7456 82.6715 88.6937C82.6715 88.9937 82.6681 89.4311 82.6637 89.9904C82.6132 96.4051 82.4367 118.841 85.8834 133.589C86.954 138.934 91.2364 151.227 99.8013 161.382V162.451C99.8013 177.95 92.307 184.898 91.2364 185.433C62.7392 202.848 46.8692 218.687 38.0384 231.039C41.2227 234.355 44.573 237.51 48.0757 240.491C55.274 230.017 69.1865 215.531 96.0541 199.329L100.337 213.76C100.337 214.829 105.69 235.139 136.737 235.139C165.644 235.139 171.532 218.57 172.603 215.363L177.42 199.329C204.111 215.319 218.026 229.714 225.27 240.196C228.743 237.22 232.065 234.073 235.222 230.767ZM127.637 42.1948C112.649 42.1948 103.013 43.7982 97.66 51.8152C92.8423 58.7633 93.9129 73.194 95.5188 81.7456C104.619 80.1422 108.901 73.194 108.901 73.194C109.972 71.5906 111.578 70.5217 113.184 69.9872C115.325 69.9872 116.931 69.9872 118.537 71.0562C123.89 74.263 134.061 76.4009 145.837 75.8664C162.432 75.3319 173.138 71.0562 175.279 68.3838C183.844 53.9531 181.703 42.7292 179.561 37.3845C172.067 39.5224 158.149 42.1948 135.667 42.1948H127.637ZM136.737 221.242C156.543 221.242 159.22 212.156 159.22 211.622L166.714 188.105C164.038 184.364 161.361 179.019 160.291 171.537C153.867 175.278 145.837 177.416 136.202 177.416C126.566 177.416 119.072 174.743 112.649 171.537C111.578 178.485 109.437 184.364 106.76 188.105L113.184 209.484C113.217 209.55 113.26 209.651 113.316 209.785C114.176 211.825 118.146 221.242 136.737 221.242ZM99.8013 130.917C101.942 141.072 110.507 164.054 136.737 164.054C162.94 164.054 170.98 141.119 174.732 130.415L174.744 130.382C178.491 115.417 177.42 88.6937 177.42 88.6937C177.153 87.6248 177.019 86.6894 176.885 85.7541C176.751 84.8188 176.617 83.8835 176.35 82.8145C167.785 86.5558 156.543 88.6937 146.373 88.6937C134.596 89.2282 124.425 87.6248 116.931 84.4179C113.184 88.6937 106.76 93.5039 97.1247 95.1073C97.1247 103.659 97.1247 120.227 99.8013 130.917Z" fill="#1875D1"/>
</g>
<defs>
<linearGradient id="paint0_linear" x1="136.5" y1="0" x2="136.5" y2="273" gradientUnits="userSpaceOnUse">
<stop stop-color="#025A9E"/>
<stop offset="1" stop-color="#02369E"/>
</linearGradient>
</defs>
</svg>
