<svg xmlns="http://www.w3.org/2000/svg" xmlns:xlink="http://www.w3.org/1999/xlink" version="1.1" x="0px" y="0px" viewBox="0 0 100 100" enable-background="new 0 0 100 100" xml:space="preserve">
  <style>
    path { fill: rgb(24, 117, 209); }
    @media screen and (min-width: 76rem) {
      path { fill: rgb(2, 63, 159); }
    }
  </style>
  <path d="M94.212,49.2l-2.86-4.57c-0.32-0.51-0.62-1.57-0.62-2.18v-7.77c0-1.4-1-2.82-2.32-3.29l-4.92-1.76  c-0.95-0.34-2.45-0.58-3.48-0.55l-12.39,0.34h-0.12c-0.73,0-1.86-0.16-2.5-0.36l-12.71-3.94c-0.27-0.08-0.57-0.49-0.57-0.78v-13.9  c0-1.56-1.26-2.85-2.81-2.88l-16.8-0.36h-0.06c-1.52,0-2.81,1.24-2.87,2.76l-1.26,32.01c-0.01,0.16-0.16,0.31-0.32,0.31H7.092  c-1.36,0-1.83,0.78-1.97,1.12c-0.14,0.34-0.36,1.22,0.61,2.18l8.75,8.67c0.48,0.47,1.14,1.47,1.38,2.09l2.13,5.38  c0.42,1.08,1.53,2.29,2.56,2.82l6,3.06c0.4,0.21,0.85,0.32,1.31,0.32c1.05,0,2.03-0.56,2.55-1.46l1.53-2.63  c0.21-0.36,0.85-0.75,1.26-0.771l2.86-0.119h0.07c0.61,0,1.56,0.27,2.04,0.569l4.3,2.76c0.53,0.341,1.29,1.171,1.59,1.73  l10.46,19.74c0.57,1.069,1.88,2.1,3.05,2.399l10.19,2.57c0.22,0.06,0.45,0.09,0.67,0.09c0.67,0,1.28-0.29,1.67-0.78  c0.42-0.529,0.55-1.239,0.37-1.989l-1.43-5.891c-0.13-0.529-0.02-1.529,0.22-2.02l3.42-6.94c0.26-0.529,1-1.33,1.51-1.63  l17.18-10.06c1.06-0.62,2.02-1.99,2.24-3.2l1.32-7.34C95.142,51.8,94.832,50.19,94.212,49.2z"/>
</svg>